<?xml version="1.0" encoding="utf-8"?>
<!-- Generator: Adobe Illustrator 24.1.1, SVG Export Plug-In . SVG Version: 6.00 Build 0)  -->
<svg version="1.1" id="Layer_1" xmlns="http://www.w3.org/2000/svg" xmlns:xlink="http://www.w3.org/1999/xlink" x="0px" y="0px"
	 viewBox="0 0 512 512" style="enable-background:new 0 0 512 512;" xml:space="preserve">
<g>
	<path d="M292.2,256l72.4-72.4c10-10,10-26.2,0-36.2c-10-10-26.2-10-36.2,0L256,219.8l-72.4-72.4c-10-10-26.2-10-36.2,0
		c-10,10-10,26.2,0,36.2l72.4,72.4l-72.4,72.4c-10,10-10,26.2,0,36.2c10,10,26.2,10,36.2,0l72.4-72.4l72.4,72.4
		c10,10,26.2,10,36.2,0c10-10,10-26.2,0-36.2L292.2,256z M256,512C114.6,512,0,397.4,0,256S114.6,0,256,0s256,114.6,256,256
		S397.4,512,256,512z"/>
</g>
</svg>
